<svg xmlns="http://www.w3.org/2000/svg" width="226.264" height="44.021" viewBox="0 0 226.264 44.021">
  <g id="Group_1" data-name="Group 1" transform="translate(-43.193 -77.544)">
    <path id="Path_1" data-name="Path 1" d="M70.29,118.77c-.985,0-1.969.047-3.094.047L48.162,90.83v21.518c0,2.953,1.266,6,4.407,6.048h.094v.422h-.938c-.984,0-2.344-.141-3.8-.141s-2.86.141-3.844.141h-.891V118.4h.094c3.141,0,4.36-3.094,4.36-6.048V90.22c-1.266-2.016-1.828-2.907-3.61-2.907h-.188v-.422h.984c1.36,0,2.11.047,3.422.047,1.5,0,2.157-.047,3.375-.047l18.33,26.769v-20.3c0-2.953-1.266-6-4.36-6.048h-.094v-.422H66.4c.985,0,2.391.141,3.8.141,1.5,0,2.86-.141,3.844-.141h.891v.422h-.094c-3.094,0-4.36,3.094-4.36,6.048v21.049l2.813,4.407C71.977,118.817,70.946,118.77,70.29,118.77Z" transform="translate(0 -8.223)"/>
    <path id="Path_2" data-name="Path 2" d="M318.417,180.477c-1.359,0-2.3-.141-3.844-.141s-2.485.141-3.8.141H309.6V180.1h.094c2.11,0,2.485-.937,2.485-2.907v-15c0-1.922-.375-2.86-2.485-2.86H309.6v-.375h.938c2.156,0,5.485-.8,6.141-1.969h.328V177.2c0,1.969.375,2.907,2.438,2.907h.141v.375Z" transform="translate(-234.34 -69.882)"/>
    <path id="Path_3" data-name="Path 3" d="M400.025,170.348c0-7.829,5.391-12.189,10.736-12.189,4.36,0,8.251,3.375,8.251,6.563a1.866,1.866,0,0,1-1.828,1.969,1.736,1.736,0,0,1-1.828-1.781c0-.422.047-.75.047-1.641,0-2.156-1.031-4.688-4.407-4.688-3.422,0-5.766,3.328-5.766,9.564,0,7.641,3.094,11.579,6.985,11.579,3,0,5.438-1.969,6.657-5.813l.375.094c-1.453,4.922-4.688,7.876-9.236,7.876C404.948,181.881,400.025,177.427,400.025,170.348Z" transform="translate(-313.877 -70.911)"/>
    <path id="Path_4" data-name="Path 4" d="M674.281,111.063h-.328c-.281-1.735-2.485-2.672-4.453-3.188a11.845,11.845,0,0,1-8.064,3.094c-7.454,0-13.736-6.516-13.736-15.986,0-12.423,8.86-16.783,14.674-16.783,3.375,0,5.391.891,6.751.891,1.031,0,1.735-.281,1.735-1.453l.328-.094,3.75,11.533-.328.141c-4.5-8.063-7.923-10.548-12.236-10.548-4.782,0-9,3.938-9,15.611,0,10.5,3.375,15.892,9.423,15.892a9.748,9.748,0,0,0,6.423-2.719V99.859c0-2.2-.7-2.954-2.578-2.954h-.094v-.422h1.359c1.266,0,2.391.141,3.844.141s2.578-.141,3.844-.141H677v.422h-.141c-1.875,0-2.578.75-2.578,2.954Z" transform="translate(-531.738)"/>
    <path id="Path_5" data-name="Path 5" d="M902.894,170.02c0-6.891,4.969-11.861,10.689-11.861s10.689,4.969,10.689,11.861-4.969,11.861-10.689,11.861S902.894,176.911,902.894,170.02Zm16.033,0c0-9.329-2.016-11.439-5.344-11.439s-5.344,2.11-5.344,11.439,2.016,11.439,5.344,11.439S918.927,179.349,918.927,170.02Z" transform="translate(-756.212 -70.911)"/>
    <path id="Path_6" data-name="Path 6" d="M1082.364,176.583a1.753,1.753,0,0,1,1.734-1.828c.984,0,1.734.75,1.969,2.11.516,3.235,1.547,4.641,3.891,4.641a4.07,4.07,0,0,0,4.079-4.172c0-1.641-1.031-3.188-2.531-5.016l-1.172-1.406c-1.5-1.782-2.719-3.657-2.719-5.719a7.227,7.227,0,0,1,7.407-7.032c3.469,0,6.47,2.11,6.47,4.172a1.7,1.7,0,0,1-1.735,1.735c-1.125,0-1.734-.75-1.969-2.063-.375-2.157-1.172-3.469-3.047-3.469a3.435,3.435,0,0,0-3.516,3.563c0,1.875,1.078,3.376,2.954,5.626l1.219,1.453c1.453,1.688,2.438,3.376,2.438,5.344,0,4.5-4.078,7.36-8.157,7.36C1085.411,181.881,1082.364,179.3,1082.364,176.583Z" transform="translate(-914.078 -70.911)"/>
    <path id="Path_7" data-name="Path 7" d="M1220.779,176.583a1.754,1.754,0,0,1,1.735-1.828c.984,0,1.734.75,1.969,2.11.516,3.235,1.547,4.641,3.891,4.641a4.069,4.069,0,0,0,4.078-4.172c0-1.641-1.031-3.188-2.531-5.016l-1.172-1.406c-1.5-1.782-2.719-3.657-2.719-5.719a7.227,7.227,0,0,1,7.407-7.032c3.469,0,6.47,2.11,6.47,4.172a1.7,1.7,0,0,1-1.735,1.735c-1.125,0-1.734-.75-1.969-2.063-.375-2.157-1.172-3.469-3.047-3.469a3.435,3.435,0,0,0-3.516,3.563c0,1.875,1.078,3.376,2.953,5.626l1.219,1.453c1.453,1.688,2.438,3.376,2.438,5.344,0,4.5-4.079,7.36-8.157,7.36C1223.826,181.881,1220.779,179.3,1220.779,176.583Z" transform="translate(-1035.831 -70.911)"/>
    <path id="Path_8" data-name="Path 8" d="M1401.9,178.927a12.165,12.165,0,0,1-7.36,2.954c-3.8,0-6.188-2.3-6.188-6,0-3.985,3.328-6.235,7.36-7.876l6.048-2.531v-3.938c0-2.063-.469-2.907-2.156-2.907-2.813,0-4.735,1.828-6.563,4.641-.75,1.313-1.266,1.969-2.25,1.969a1.73,1.73,0,0,1-1.735-1.735c0-2.672,6.235-5.344,11.3-5.344,4.688,0,6.141,1.688,6.141,5.11v15.377c0,1.172.422,1.688,1.219,1.688.844,0,1.641-.938,2.063-1.922l.328.141a4.965,4.965,0,0,1-4.641,3.329A3.317,3.317,0,0,1,1401.9,178.927Zm-.047-.469a12.837,12.837,0,0,1-.094-1.641V165.988l-4.36,1.782c-3.422,1.406-3.985,3.844-3.985,7.595,0,3.61.844,5.579,2.86,5.579C1398.008,180.943,1400.164,179.818,1401.852,178.458Z" transform="translate(-1183.23 -70.911)"/>
    <path id="Path_9" data-name="Path 9" d="M1569.862,169.4c0-2.485,3.188-3.891,6.844-4.829-2.954-.375-5.485-1.453-5.485-3.8,0-2.391,2.766-3.938,5.673-5.016a7.806,7.806,0,0,1-5.157-7.454c0-4.922,3.938-8.3,9.236-8.3a10.023,10.023,0,0,1,4.969,1.266c1.266-1.922,3.094-3.75,5.157-3.75,1.312,0,2.156.75,2.156,1.735a1.691,1.691,0,0,1-1.735,1.688c-1.312,0-1.875-.938-3.141-.938-.8,0-1.36.422-2.11,1.5a7.54,7.54,0,0,1,3.891,6.751c0,4.922-3.891,8.251-9.188,8.251a10.835,10.835,0,0,1-3.516-.563c-1.875.656-3.188,1.313-3.188,2.485,0,1.031,1.172,1.594,4.266,1.969l5.86.7c4.875.609,8.3,2.25,8.3,6.235,0,4.735-5.625,6.985-11.814,6.985C1574.363,174.32,1569.862,172.023,1569.862,169.4Zm19.643.047c0-2.532-3.188-3.516-6.282-3.938l-5.673-.75c-3.047.844-4.36,2.344-4.36,4.547,0,2.485,2.485,4.594,7.829,4.594C1586.645,173.9,1589.5,172.117,1589.5,169.444Zm-4.125-21.19c0-4.923-1.219-7.829-4.407-7.829-3.235,0-4.407,2.906-4.407,7.829s1.172,7.829,4.407,7.829C1584.161,156.084,1585.38,153.177,1585.38,148.255Z" transform="translate(-1342.892 -52.755)"/>
    <path id="Path_10" data-name="Path 10" d="M1760.409,170.3c0-7.829,5.485-12.142,10.642-12.142,4.735,0,8.954,3.235,8.814,8.673h-14.2a14.5,14.5,0,0,0-.047,1.453c0,6.751,2.813,11.439,7.219,11.439,2.766,0,5.392-1.547,6.751-5.813l.375.094c-1.453,4.876-4.594,7.876-9.329,7.876C1765.613,181.881,1760.409,177.474,1760.409,170.3Zm10.408-11.72c-2.813,0-4.829,2.531-5.157,7.782h9.61C1775.223,160.5,1773.254,158.581,1770.817,158.581Z" transform="translate(-1510.501 -70.911)"/>
  </g>
</svg>
