<svg xmlns="http://www.w3.org/2000/svg" width="263.007" height="51.169" viewBox="0 0 263.007 51.169">
  <g id="Group_1" data-name="Group 1" transform="translate(-43.193 -77.544)">
    <path id="Path_1" data-name="Path 1" d="M74.69,123.947c-1.144,0-2.289.055-3.6.055L48.969,91.469v25.012c0,3.433,1.471,6.975,5.122,7.03H54.2V124h-1.09c-1.144,0-2.725-.164-4.414-.164s-3.324.164-4.468.164H43.193v-.49H43.3c3.651,0,5.068-3.6,5.068-7.03V90.761c-1.471-2.343-2.125-3.379-4.2-3.379h-.218v-.49H45.1c1.58,0,2.452.054,3.978.054,1.744,0,2.507-.054,3.924-.054l21.307,31.116v-23.6c0-3.433-1.471-6.975-5.068-7.03h-.109v-.49h1.035c1.144,0,2.779.163,4.414.163,1.744,0,3.324-.163,4.468-.163h1.035v.49h-.109c-3.6,0-5.068,3.6-5.068,7.03v24.468L78.178,124C76.652,124,75.453,123.947,74.69,123.947Z" transform="translate(0 -8.04)"/>
    <path id="Path_2" data-name="Path 2" d="M319.848,184.291c-1.58,0-2.67-.164-4.468-.164s-2.888.164-4.414.164H309.6v-.436h.109c2.452,0,2.888-1.09,2.888-3.379V163.039c0-2.234-.436-3.324-2.888-3.324H309.6v-.436h1.09c2.507,0,6.376-.926,7.139-2.289h.381v23.487c0,2.289.436,3.379,2.834,3.379h.163v.436Z" transform="translate(-229.132 -68.329)"/>
    <path id="Path_3" data-name="Path 3" d="M400.025,172.327c0-9.1,6.267-14.168,12.479-14.168,5.068,0,9.591,3.924,9.591,7.629a2.169,2.169,0,0,1-2.125,2.289,2.017,2.017,0,0,1-2.125-2.071c0-.49.054-.872.054-1.907,0-2.507-1.2-5.449-5.122-5.449-3.978,0-6.7,3.869-6.7,11.117,0,8.882,3.6,13.46,8.12,13.46,3.488,0,6.321-2.289,7.738-6.757l.436.109c-1.689,5.722-5.449,9.155-10.735,9.155C405.747,185.733,400.025,180.556,400.025,172.327Z" transform="translate(-306.902 -69.335)"/>
    <path id="Path_4" data-name="Path 4" d="M678.6,116.507h-.382c-.327-2.016-2.888-3.106-5.177-3.706a13.768,13.768,0,0,1-9.373,3.6c-8.664,0-15.966-7.575-15.966-18.582,0-14.441,10.3-19.509,17.056-19.509,3.923,0,6.267,1.035,7.847,1.035,1.2,0,2.016-.327,2.016-1.689l.381-.109,4.36,13.405-.381.163c-5.231-9.373-9.209-12.261-14.223-12.261-5.558,0-10.463,4.577-10.463,18.146,0,12.206,3.924,18.473,10.953,18.473a11.33,11.33,0,0,0,7.466-3.161v-8.828c0-2.561-.817-3.433-3-3.433h-.109v-.49h1.58c1.471,0,2.779.164,4.469.164s3-.164,4.468-.164h1.635v.49h-.163c-2.18,0-3,.872-3,3.433Z" transform="translate(-519.921)"/>
    <path id="Path_5" data-name="Path 5" d="M902.894,171.946c0-8.011,5.776-13.787,12.424-13.787s12.425,5.776,12.425,13.787-5.776,13.787-12.425,13.787S902.894,179.956,902.894,171.946Zm18.637,0c0-10.844-2.343-13.3-6.212-13.3s-6.212,2.452-6.212,13.3,2.343,13.3,6.212,13.3S921.531,182.79,921.531,171.946Z" transform="translate(-739.406 -69.335)"/>
    <path id="Path_6" data-name="Path 6" d="M1082.364,179.575a2.038,2.038,0,0,1,2.016-2.125c1.144,0,2.016.872,2.289,2.452.6,3.76,1.8,5.395,4.523,5.395a4.73,4.73,0,0,0,4.741-4.85c0-1.907-1.2-3.706-2.943-5.831l-1.362-1.635c-1.744-2.071-3.161-4.251-3.161-6.648a8.4,8.4,0,0,1,8.61-8.174c4.033,0,7.52,2.452,7.52,4.85a1.978,1.978,0,0,1-2.016,2.016c-1.308,0-2.016-.872-2.289-2.4-.436-2.507-1.362-4.033-3.542-4.033a3.993,3.993,0,0,0-4.087,4.141c0,2.18,1.254,3.924,3.433,6.539l1.417,1.689c1.689,1.962,2.834,3.924,2.834,6.212,0,5.231-4.741,8.556-9.482,8.556C1085.906,185.733,1082.364,182.736,1082.364,179.575Z" transform="translate(-893.764 -69.335)"/>
    <path id="Path_7" data-name="Path 7" d="M1220.779,179.575a2.038,2.038,0,0,1,2.016-2.125c1.144,0,2.016.872,2.289,2.452.6,3.76,1.8,5.395,4.523,5.395a4.73,4.73,0,0,0,4.741-4.85c0-1.907-1.2-3.706-2.943-5.831l-1.362-1.635c-1.744-2.071-3.161-4.251-3.161-6.648a8.4,8.4,0,0,1,8.61-8.174c4.032,0,7.52,2.452,7.52,4.85a1.978,1.978,0,0,1-2.017,2.016c-1.308,0-2.016-.872-2.289-2.4-.436-2.507-1.362-4.033-3.542-4.033a3.993,3.993,0,0,0-4.087,4.141c0,2.18,1.253,3.924,3.433,6.539l1.417,1.689c1.689,1.962,2.834,3.924,2.834,6.212,0,5.231-4.741,8.556-9.482,8.556C1224.321,185.733,1220.779,182.736,1220.779,179.575Z" transform="translate(-1012.811 -69.335)"/>
    <path id="Path_8" data-name="Path 8" d="M1404.1,182.3a14.141,14.141,0,0,1-8.556,3.433c-4.414,0-7.193-2.67-7.193-6.975,0-4.632,3.869-7.248,8.555-9.155l7.03-2.943v-4.578c0-2.4-.545-3.379-2.507-3.379-3.27,0-5.5,2.125-7.629,5.395-.872,1.526-1.471,2.289-2.616,2.289a2.011,2.011,0,0,1-2.016-2.016c0-3.106,7.248-6.212,13.133-6.212,5.45,0,7.139,1.962,7.139,5.94v17.874c0,1.362.49,1.962,1.417,1.962.981,0,1.907-1.09,2.4-2.234l.381.163a5.771,5.771,0,0,1-5.395,3.869A3.856,3.856,0,0,1,1404.1,182.3Zm-.055-.545a14.911,14.911,0,0,1-.109-1.907V167.259l-5.068,2.071c-3.978,1.635-4.632,4.468-4.632,8.828,0,4.2.981,6.485,3.324,6.485C1399.576,184.643,1402.082,183.335,1404.044,181.755Z" transform="translate(-1156.934 -69.335)"/>
    <path id="Path_9" data-name="Path 9" d="M1569.862,174.574c0-2.888,3.705-4.523,7.956-5.613-3.433-.436-6.376-1.689-6.376-4.414,0-2.779,3.215-4.577,6.594-5.831a9.073,9.073,0,0,1-5.994-8.665c0-5.722,4.578-9.645,10.735-9.645a11.65,11.65,0,0,1,5.776,1.471c1.471-2.234,3.6-4.359,5.994-4.359,1.526,0,2.507.872,2.507,2.016a1.966,1.966,0,0,1-2.016,1.962c-1.526,0-2.18-1.09-3.651-1.09-.926,0-1.58.491-2.452,1.744a8.765,8.765,0,0,1,4.523,7.847c0,5.722-4.523,9.591-10.681,9.591a12.594,12.594,0,0,1-4.087-.654c-2.18.763-3.706,1.526-3.706,2.888,0,1.2,1.362,1.853,4.959,2.289l6.812.817c5.667.708,9.645,2.616,9.645,7.248,0,5.5-6.539,8.12-13.732,8.12C1575.094,180.3,1569.862,177.626,1569.862,174.574Zm22.833.054c0-2.943-3.705-4.087-7.3-4.577l-6.594-.872c-3.542.981-5.068,2.725-5.068,5.286,0,2.888,2.888,5.34,9.1,5.34C1589.371,179.806,1592.695,177.735,1592.695,174.629ZM1587.9,150c0-5.722-1.417-9.1-5.122-9.1-3.76,0-5.122,3.378-5.122,9.1s1.362,9.1,5.122,9.1C1586.483,159.1,1587.9,155.72,1587.9,150Z" transform="translate(-1313.048 -51.583)"/>
    <path id="Path_10" data-name="Path 10" d="M1760.409,172.273c0-9.1,6.376-14.114,12.37-14.114,5.5,0,10.408,3.76,10.245,10.081h-16.511a16.878,16.878,0,0,0-.055,1.689c0,7.847,3.27,13.3,8.392,13.3,3.215,0,6.267-1.8,7.847-6.757l.436.109c-1.689,5.667-5.34,9.155-10.844,9.155C1766.458,185.733,1760.409,180.61,1760.409,172.273Zm12.1-13.623c-3.269,0-5.613,2.942-5.994,9.046h11.171C1777.629,160.884,1775.34,158.65,1772.507,158.65Z" transform="translate(-1476.932 -69.335)"/>
  </g>
</svg>
