<svg xmlns="http://www.w3.org/2000/svg" width="263.007" height="51.169" viewBox="0 0 263.007 51.169">
  <g id="Group_1" data-name="Group 1" transform="translate(-43.193 -77.544)">
    <path id="Path_1" data-name="Path 1" d="M79.229,129.287c-1.309,0-2.619.062-4.115.062L49.8,92.129v28.617c0,3.928,1.683,7.98,5.86,8.043h.125v.561H54.54c-1.309,0-3.117-.187-5.05-.187s-3.8.187-5.112.187H43.193v-.561h.125c4.177,0,5.8-4.115,5.8-8.043V91.318c-1.683-2.681-2.431-3.865-4.8-3.865h-.249v-.561h1.309c1.808,0,2.806.062,4.551.062,2,0,2.868-.062,4.489-.062l24.377,35.6v-27c0-3.928-1.683-7.98-5.8-8.043H72.87v-.561h1.185c1.309,0,3.18.187,5.05.187,2,0,3.8-.187,5.112-.187H85.4v.561h-.125c-4.115,0-5.8,4.115-5.8,8.043v27.994l3.741,5.861C81.474,129.35,80.1,129.287,79.229,129.287Z" transform="translate(0 -7.851)"/>
    <path id="Path_2" data-name="Path 2" d="M321.324,188.226c-1.808,0-3.055-.187-5.112-.187s-3.3.187-5.05.187H309.6v-.5h.125c2.806,0,3.3-1.247,3.3-3.865V163.911c0-2.556-.5-3.8-3.3-3.8H309.6v-.5h1.247c2.868,0,7.295-1.06,8.167-2.619h.436v26.872c0,2.619.5,3.865,3.242,3.865h.187v.5Z" transform="translate(-223.76 -66.727)"/>
    <path id="Path_3" data-name="Path 3" d="M400.025,174.369c0-10.412,7.17-16.21,14.277-16.21,5.8,0,10.973,4.489,10.973,8.729a2.481,2.481,0,0,1-2.431,2.619,2.308,2.308,0,0,1-2.432-2.369c0-.561.062-1,.062-2.182,0-2.868-1.371-6.234-5.86-6.234-4.551,0-7.669,4.426-7.669,12.719,0,10.162,4.115,15.4,9.29,15.4,3.99,0,7.232-2.619,8.853-7.731l.5.125c-1.933,6.546-6.235,10.474-12.282,10.474C406.571,189.706,400.025,183.783,400.025,174.369Z" transform="translate(-299.706 -67.709)"/>
    <path id="Path_4" data-name="Path 4" d="M683.051,122.122h-.437c-.374-2.307-3.3-3.554-5.923-4.24A15.752,15.752,0,0,1,665.968,122c-9.913,0-18.267-8.666-18.267-21.26,0-16.522,11.783-22.32,19.514-22.32,4.489,0,7.17,1.185,8.978,1.185,1.372,0,2.307-.374,2.307-1.933l.436-.125,4.988,15.337-.436.187C677.5,82.345,672.95,79.041,667.214,79.041c-6.359,0-11.971,5.237-11.971,20.761,0,13.966,4.489,21.135,12.532,21.135a12.963,12.963,0,0,0,8.541-3.616v-10.1c0-2.93-.935-3.928-3.429-3.928h-.125v-.561h1.808c1.683,0,3.18.187,5.112.187s3.429-.187,5.112-.187h1.87v.561h-.187c-2.494,0-3.429,1-3.429,3.928Z" transform="translate(-507.731)"/>
    <path id="Path_5" data-name="Path 5" d="M902.894,173.933c0-9.165,6.609-15.774,14.215-15.774s14.215,6.609,14.215,15.774-6.609,15.774-14.215,15.774S902.894,183.1,902.894,173.933Zm21.322,0c0-12.407-2.681-15.213-7.107-15.213S910,161.526,910,173.933s2.681,15.212,7.108,15.212S924.216,186.34,924.216,173.933Z" transform="translate(-722.07 -67.709)"/>
    <path id="Path_6" data-name="Path 6" d="M1082.364,182.661a2.332,2.332,0,0,1,2.307-2.431c1.309,0,2.307,1,2.618,2.806.686,4.3,2.057,6.172,5.175,6.172a5.412,5.412,0,0,0,5.424-5.549c0-2.182-1.372-4.24-3.367-6.671l-1.559-1.87c-2-2.369-3.616-4.863-3.616-7.606,0-5.362,4.614-9.352,9.851-9.352,4.614,0,8.6,2.806,8.6,5.549a2.263,2.263,0,0,1-2.307,2.307c-1.5,0-2.307-1-2.619-2.743-.5-2.868-1.559-4.614-4.052-4.614a4.569,4.569,0,0,0-4.676,4.738c0,2.494,1.434,4.489,3.928,7.482l1.621,1.933c1.933,2.245,3.242,4.489,3.242,7.108,0,5.985-5.424,9.788-10.848,9.788C1086.417,189.706,1082.364,186.277,1082.364,182.661Z" transform="translate(-872.809 -67.709)"/>
    <path id="Path_7" data-name="Path 7" d="M1220.779,182.661a2.332,2.332,0,0,1,2.307-2.431c1.309,0,2.307,1,2.618,2.806.686,4.3,2.057,6.172,5.175,6.172a5.412,5.412,0,0,0,5.424-5.549c0-2.182-1.372-4.24-3.367-6.671l-1.559-1.87c-2-2.369-3.616-4.863-3.616-7.606,0-5.362,4.614-9.352,9.851-9.352,4.614,0,8.6,2.806,8.6,5.549a2.263,2.263,0,0,1-2.307,2.307c-1.5,0-2.307-1-2.618-2.743-.5-2.868-1.559-4.614-4.052-4.614a4.569,4.569,0,0,0-4.676,4.738c0,2.494,1.434,4.489,3.928,7.482l1.621,1.933c1.933,2.245,3.242,4.489,3.242,7.108,0,5.985-5.424,9.788-10.849,9.788C1224.832,189.706,1220.779,186.277,1220.779,182.661Z" transform="translate(-989.065 -67.709)"/>
    <path id="Path_8" data-name="Path 8" d="M1406.368,185.779c-2.369,1.933-5.923,3.928-9.788,3.928-5.05,0-8.23-3.055-8.23-7.98,0-5.3,4.427-8.292,9.788-10.474l8.043-3.367v-5.237c0-2.743-.624-3.866-2.868-3.866-3.741,0-6.3,2.432-8.729,6.172-1,1.746-1.683,2.619-2.993,2.619a2.3,2.3,0,0,1-2.307-2.307c0-3.554,8.292-7.108,15.026-7.108,6.235,0,8.167,2.244,8.167,6.8V185.4c0,1.558.561,2.244,1.621,2.244,1.122,0,2.182-1.247,2.743-2.556l.436.187a6.6,6.6,0,0,1-6.172,4.427A4.412,4.412,0,0,1,1406.368,185.779Zm-.062-.623a17.067,17.067,0,0,1-.125-2.182v-14.4l-5.8,2.369c-4.551,1.87-5.3,5.112-5.3,10.1,0,4.8,1.123,7.419,3.8,7.419C1401.194,188.46,1404.061,186.963,1406.306,185.155Z" transform="translate(-1129.809 -67.709)"/>
    <path id="Path_9" data-name="Path 9" d="M1569.862,179.915c0-3.3,4.24-5.175,9.1-6.422-3.928-.5-7.294-1.933-7.294-5.05,0-3.18,3.678-5.237,7.544-6.671a10.381,10.381,0,0,1-6.858-9.913c0-6.546,5.237-11.035,12.282-11.035a13.33,13.33,0,0,1,6.609,1.683c1.683-2.556,4.115-4.988,6.858-4.988,1.746,0,2.868,1,2.868,2.307a2.249,2.249,0,0,1-2.307,2.244c-1.746,0-2.494-1.247-4.177-1.247-1.06,0-1.808.561-2.805,2a10.028,10.028,0,0,1,5.175,8.978c0,6.546-5.175,10.973-12.22,10.973a14.41,14.41,0,0,1-4.676-.748c-2.494.873-4.24,1.746-4.24,3.3,0,1.372,1.558,2.12,5.673,2.619l7.793.935c6.484.811,11.035,2.993,11.035,8.292,0,6.3-7.481,9.29-15.711,9.29C1575.848,186.461,1569.862,183.406,1569.862,179.915Zm26.123.062c0-3.367-4.24-4.676-8.354-5.237l-7.544-1c-4.052,1.122-5.8,3.117-5.8,6.048,0,3.3,3.3,6.11,10.412,6.11C1592.182,185.9,1595.985,183.531,1595.985,179.977ZM1590.5,151.8c0-6.547-1.621-10.412-5.861-10.412-4.3,0-5.861,3.865-5.861,10.412s1.559,10.412,5.861,10.412C1588.878,162.208,1590.5,158.343,1590.5,151.8Z" transform="translate(-1282.263 -50.374)"/>
    <path id="Path_10" data-name="Path 10" d="M1760.409,174.307c0-10.412,7.295-16.148,14.153-16.148,6.3,0,11.908,4.3,11.721,11.534h-18.891c-.062.561-.062,1.309-.062,1.933,0,8.978,3.741,15.213,9.6,15.213,3.679,0,7.17-2.057,8.978-7.731l.5.125c-1.933,6.484-6.11,10.474-12.407,10.474C1767.33,189.706,1760.409,183.846,1760.409,174.307Zm13.841-15.587c-3.74,0-6.422,3.367-6.858,10.349h12.781C1780.111,161.276,1777.492,158.72,1774.25,158.72Z" transform="translate(-1442.305 -67.709)"/>
  </g>
</svg>
